<svg width="1143" height="154" viewBox="0 0 612 154" fill="none" xmlns="http://www.w3.org/2000/svg">
<g filter="url(#filter0_d_8_14)">
<path d="M6.5 143C37.7164 131.736 69.9793 120.257 99.5 109.831C143.364 94.3398 176.5 74.5 200.5 74.5C224.5 74.5 259.5 96.5 274.5 105C289.5 113.5 333.5 92 363 92C392.5 92 417.5 105 454.5 105C491.5 105 513 85.5 529.5 74.5C546 63.5 605.5 2.5 605.5 2.5" stroke="url(#paint0_linear_8_14)" stroke-width="5" stroke-linecap="round" shape-rendering="crispEdges"/>
</g>
<path d="M99.5 109.831C69.9793 120.257 37.7164 131.736 6.5 143H605.5V72.75V2.5C605.5 2.5 546 63.5 529.5 74.5C513 85.5 491.5 105 454.5 105C417.5 105 392.5 92 363 92C333.5 92 289.5 113.5 274.5 105C259.5 96.5 224.5 74.5 200.5 74.5C176.5 74.5 143.364 94.3398 99.5 109.831Z" fill="url(#paint1_linear_8_14)" fill-opacity="0.15"/>
<circle cx="118.5" cy="102.5" r="5.5" fill="white" stroke="#95BF6F" stroke-width="4"/>
<circle cx="199.5" cy="74.5" r="5.5" fill="white"/>
<circle cx="199.5" cy="74.5" r="5.5" stroke="#80B674" stroke-width="4"/>
<circle cx="199.5" cy="74.5" r="5.5" stroke="#80B674" stroke-width="4"/>
<circle cx="278.5" cy="105.5" r="5.5" fill="white" stroke="#61A073" stroke-width="4"/>
<circle cx="365.5" cy="92.5" r="5.5" fill="white" stroke="#468E89" stroke-width="4"/>
<circle cx="464.5" cy="104.5" r="5.5" fill="white" stroke="#2B82AF" stroke-width="4"/>
<circle cx="536.5" cy="68.5" r="5.5" fill="white" stroke="#1879CA" stroke-width="4"/>
<defs>
<filter id="filter0_d_8_14" x="-0.000671387" y="0" width="612.001" height="153.501" filterUnits="userSpaceOnUse" color-interpolation-filters="sRGB">
<feFlood flood-opacity="0" result="BackgroundImageFix"/>
<feColorMatrix in="SourceAlpha" type="matrix" values="0 0 0 0 0 0 0 0 0 0 0 0 0 0 0 0 0 0 127 0" result="hardAlpha"/>
<feOffset dy="4"/>
<feGaussianBlur stdDeviation="2"/>
<feComposite in2="hardAlpha" operator="out"/>
<feColorMatrix type="matrix" values="0 0 0 0 0 0 0 0 0 0 0 0 0 0 0 0 0 0 0.25 0"/>
<feBlend mode="normal" in2="BackgroundImageFix" result="effect1_dropShadow_8_14"/>
<feBlend mode="normal" in="SourceGraphic" in2="effect1_dropShadow_8_14" result="shape"/>
</filter>
<linearGradient id="paint0_linear_8_14" x1="6" y1="143" x2="606" y2="143" gradientUnits="userSpaceOnUse">
<stop stop-color="#B8CE66"/>
<stop offset="0.495" stop-color="#61A87B"/>
<stop offset="1" stop-color="#007AFF" stop-opacity="0.85"/>
</linearGradient>
<linearGradient id="paint1_linear_8_14" x1="6" y1="143" x2="606" y2="143" gradientUnits="userSpaceOnUse">
<stop stop-color="#B8CE66"/>
<stop offset="0.475" stop-color="#61A87B"/>
<stop offset="1" stop-color="#007AFF" stop-opacity="0.85"/>
</linearGradient>
</defs>
</svg>
